<svg width="191" height="169" viewBox="0 0 191 169" fill="none" xmlns="http://www.w3.org/2000/svg">
<g clip-path="url(#clip0_3_731)">
<path d="M117.708 9.90777C116.728 10.0166 115.422 10.0166 113.68 10.0166C104.97 10.0166 96.1508 10.0166 87.4407 10.0166C85.6987 10.0166 84.501 10.0166 83.63 9.90777L83.5211 9.47226V9.36339C83.5211 9.36339 83.5211 9.25451 83.63 9.25451C85.0454 8.05687 86.3519 7.18585 87.5496 6.64147C88.965 5.98821 90.0537 5.33495 90.8159 4.79057C92.3401 3.7018 93.9733 2.61304 95.6064 1.63315C97.0218 0.762136 98.2195 0.32663 99.0905 0.108877C100.397 -0.108877 101.704 0 103.01 0.435506C104.099 0.762136 105.188 1.4154 106.276 2.17753C109.434 4.46394 111.611 5.87933 112.809 6.42372C114.115 6.9681 115.204 7.62136 116.184 8.3835C116.837 8.71012 117.273 9.25451 117.708 9.90777Z" fill="#004AAD"/>
<path d="M83.63 9.90777C84.501 10.0166 85.6987 10.0166 87.4407 10.0166C96.1508 10.0166 104.97 10.0166 113.68 10.0166C115.422 10.0166 116.728 10.0166 117.708 9.90777C122.281 10.0166 126.854 10.0166 131.536 10.0166C134.258 10.0166 136.435 10.0166 138.177 10.1255C142.097 10.3433 146.016 10.6699 149.827 11.1054C154.073 11.6498 158.319 12.5208 162.348 13.8273C166.267 15.025 169.969 16.8759 173.344 19.2712C174.977 20.4688 176.393 21.7753 177.699 23.4085C181.401 27.8724 183.905 32.7718 185.321 38.2157C186.301 42.1352 186.954 46.2725 187.172 50.7365C187.281 53.1318 187.389 55.3093 187.389 57.2691C187.389 62.2774 186.845 67.2857 185.647 72.0763C184.776 75.4515 183.47 78.6089 181.619 81.5485C181.183 82.2018 180.53 82.9639 179.768 83.835C178.897 84.706 178.026 85.6859 177.155 86.7746C176.502 87.6456 175.74 88.2989 174.76 88.8433C172.473 90.3675 170.187 91.5652 167.683 92.654C161.477 94.8315 155.162 96.2469 148.738 96.7913C147.649 96.9001 145.472 97.009 142.206 97.2268C139.701 97.3357 137.306 97.4445 135.02 97.4445C131.1 97.4445 121.519 97.5534 106.167 97.5534H104.208H104.099C104.099 97.5534 104.099 97.5534 104.099 97.6623C104.099 113.994 104.099 130.216 104.099 146.33C104.099 146.33 104.099 146.548 104.099 146.766C104.099 147.419 104.317 147.637 104.97 147.419H116.62H123.152C123.261 147.419 123.261 147.419 123.261 147.528L123.37 147.637V155.693V155.802H123.261C107.909 155.911 92.5579 155.911 77.0974 155.802H76.9886V155.693V147.637C76.9886 147.528 76.9886 147.528 77.0974 147.528L77.2063 147.419H93.8644H95.6064H96.0419C96.0419 147.419 96.042 147.419 96.1508 147.419C96.1508 147.419 96.1508 147.419 96.1508 147.31C96.1508 147.31 96.1508 147.31 96.1508 147.201C96.1508 130.107 96.1508 112.905 96.1508 95.8114C96.1508 95.0492 95.9331 94.8315 95.3887 94.9404H66.9719C66.863 94.9404 66.7542 94.9404 66.7542 95.0492C66.6453 95.0492 66.6453 95.1581 66.5364 95.267C64.9033 98.6422 63.4879 102.126 61.9636 105.61C61.8547 105.937 61.637 106.481 61.5281 107.026C61.4192 107.57 61.2014 108.006 61.0926 108.441C58.8062 113.667 56.302 119.22 53.5801 124.881L42.9102 148.508C42.9102 148.508 42.9102 148.508 42.9102 148.617C42.9102 148.617 42.9102 148.617 42.9102 148.725C42.9102 148.725 42.9102 148.725 43.0191 148.725H56.6286C56.7375 148.725 56.7375 148.725 56.7375 148.834C56.7375 148.834 56.8464 148.943 56.8464 149.052V156.673C56.8464 156.782 56.8464 156.782 56.7375 156.891C56.7375 156.891 56.6286 157 56.5198 157H19.8284H19.7195H19.6106C19.6106 157 19.6106 157 19.6106 156.891V156.782L19.7195 149.052V148.943H19.8284H33.5468C33.6557 148.943 33.7646 148.943 33.8734 148.834C33.9823 148.834 33.9823 148.725 34.0912 148.617C38.3374 139.144 42.5836 129.672 47.0475 120.2C51.5114 110.51 55.8665 100.82 60.2216 91.1297C60.5482 90.2587 60.9837 89.4965 61.3103 88.6255C61.4192 88.2989 61.7458 87.4279 62.1813 86.1214C62.508 85.2503 62.8346 84.4882 63.1612 83.7261C64.7944 80.5687 66.2098 77.3024 67.6252 74.0361L71.6536 64.8904C73.5045 60.9709 75.3554 56.9424 77.0974 53.0229C78.0773 50.9542 78.9483 48.8856 79.8193 47.0347C81.9969 42.4619 83.5211 39.3044 84.2833 37.5624C87.1141 31.1387 90.0537 24.715 92.8845 18.4001H77.4241H77.3152C77.3152 18.4001 77.3152 18.2913 77.2063 18.2913V14.154L77.3152 10.2344V10.1255H77.4241L83.63 9.90777ZM104.208 83.835V89.061V89.1699C104.208 89.1699 104.208 89.2788 104.317 89.2788C104.317 89.2788 104.425 89.2788 104.425 89.3877H104.534L111.829 89.2788C122.39 89.4965 132.951 89.3877 143.512 88.9522C145.69 88.8433 147.649 88.7344 149.283 88.5167C151.133 88.2989 153.093 87.9723 154.944 87.6456C159.299 86.7746 163.437 85.4681 167.356 83.5083C171.929 80.7864 175.195 76.9757 177.046 71.9674C177.264 71.5319 177.373 70.9875 177.373 70.3343C177.373 69.5721 177.482 69.0277 177.591 68.7011C178.462 64.6727 179.006 60.9709 179.006 57.5957C179.006 54.0028 178.679 50.0832 178.026 45.7282C178.026 45.6193 177.917 44.966 177.699 43.8773C177.59 43.224 177.482 42.6796 177.482 42.0264C177.373 41.0465 177.264 40.2843 177.155 39.7399C175.304 33.3162 171.602 28.4168 166.158 24.9327C164.416 23.844 162.457 22.8641 160.279 21.9931C157.993 21.1221 155.706 20.4688 153.311 20.0333C150.589 19.4889 147.867 19.1623 145.145 18.9445C140.79 18.6179 136.435 18.509 131.971 18.509H104.643H104.534V18.6179L104.208 83.835ZM87.9851 49.2122L81.3436 63.9105L78.4039 70.3343L74.4844 79.2621L70.6737 86.9924C70.6737 86.9924 70.6737 86.9924 70.6737 87.1013C70.6737 87.1013 70.6737 87.1013 70.6737 87.2101C70.6737 87.2101 70.6737 87.2101 70.7826 87.2101L86.3519 87.1013H96.1508C96.1508 87.1013 96.1508 87.1013 96.2597 87.1013C96.2597 87.1013 96.2597 87.1013 96.3686 87.1013C96.3686 87.1013 96.3686 87.1013 96.3686 86.9924C96.3686 86.9924 96.3686 86.9924 96.3686 86.8835V83.1817L96.4775 31.0298C96.4775 30.9209 96.4775 30.9209 96.3686 31.0298L87.9851 49.2122Z" fill="white"/>
<path d="M77.2063 14.154L77.3152 18.0735C77.3152 18.0735 77.3152 18.1824 77.4241 18.1824H77.5329H92.9934C90.0537 24.6061 87.2229 31.0298 84.3922 37.3447C83.63 39.0867 82.1058 42.2441 79.9282 46.8169C79.0572 48.6678 78.0773 50.7365 77.2063 52.8051C75.4643 56.8336 73.6134 60.7531 71.7625 64.6727C71.4358 64.7816 71.1092 64.7816 71.0003 64.6727C66.5364 61.6241 63.5967 59.5555 62.2902 58.3578C60.9837 57.1602 60.0038 56.3981 59.4594 55.9626C55.8665 53.3495 52.1647 50.7365 48.5718 48.0146C46.5031 46.4903 44.4345 45.1838 42.3658 43.8773C40.7327 42.8974 39.3173 41.8086 37.793 40.7198L37.6841 40.611V40.5021V40.3932C37.6841 40.3932 37.6841 40.2843 37.793 40.2843C43.7812 36.2559 49.7694 32.2275 55.6487 28.199C58.915 25.9126 61.5281 24.0617 63.379 22.6463C64.6855 21.5576 68.4962 19.0534 74.5933 15.025C74.5933 15.025 74.811 14.8072 75.3554 14.4806C75.8998 14.3717 76.4442 14.154 77.2063 14.154Z" fill="#004AAD"/>
<path d="M131.645 18.4001C131.536 18.7268 131.753 18.9445 131.971 19.1623C133.822 20.3599 135.673 21.5576 137.524 22.8641C137.742 22.973 138.395 23.5173 139.593 24.4972C140.246 24.9327 140.899 25.4771 141.661 26.0215C148.847 30.921 156.142 35.8204 163.328 40.8287C163.328 40.8287 163.328 40.8287 163.328 40.9376C163.328 40.9376 163.328 40.9376 163.328 41.0465C163.328 41.0465 163.328 41.0465 163.328 41.1553C163.328 41.1553 163.328 41.1553 163.328 41.2642C162.13 42.1352 160.932 43.0062 159.735 43.8773C159.408 44.095 158.646 44.5305 157.557 45.1838C156.904 45.5104 156.142 46.0548 155.38 46.5992C150.589 50.0832 145.799 53.4584 141.117 56.9425C140.572 57.378 139.919 57.9223 139.157 58.4667C138.395 59.12 137.742 59.6644 137.197 60.0999C126.201 68.1567 115.204 76.2136 104.099 84.0527V18.8357V18.7268H104.208L131.645 18.4001Z" fill="#004AAD"/>
<path d="M96.3686 83.2906C96.1508 83.2906 95.9331 83.2906 95.8242 83.1817C89.836 79.1533 84.0655 74.9071 78.4039 70.4431L81.3436 64.0194C82.1057 63.475 82.759 62.7129 83.0856 61.8419C83.5211 60.9709 83.7389 60.5354 83.7389 60.5354C85.4809 57.2691 86.8963 53.785 88.2028 49.9743C88.3117 49.6477 88.2028 49.5388 87.9851 49.43L96.3686 31.3565C96.3686 31.2476 96.4775 31.2476 96.4775 31.3565L96.3686 83.2906Z" fill="#004AAD"/>
<path d="M167.247 83.5083C163.219 85.4681 159.081 86.7746 154.835 87.6456C152.984 87.9723 151.025 88.2989 149.174 88.5166C147.541 88.7344 145.69 88.8433 143.403 88.9521C132.842 89.3876 122.281 89.4965 111.72 89.2788C114.007 86.9924 116.402 85.1415 119.124 83.6172C120.321 82.9639 121.301 82.3107 122.172 81.7663C126.201 78.8266 130.338 75.7781 134.366 72.8384C135.891 71.7497 137.197 70.7698 138.286 69.8987C140.246 68.2656 141.552 67.2857 142.097 66.8502C149.5 61.4064 156.904 55.9625 164.416 50.6276C165.505 49.8655 166.485 49.1033 167.574 48.2323C167.792 48.1234 167.9 48.1234 167.9 48.3412C168.009 49.2122 168.118 50.0832 168.118 50.9542C168.118 61.4064 168.118 71.9674 168.009 82.5284C168.009 82.6373 168.009 82.7462 167.9 82.8551C167.792 82.9639 167.683 82.9639 167.574 83.0728C167.247 83.0728 167.138 83.1817 167.247 83.5083Z" fill="#004AAD"/>
<path d="M67.6252 74.1449C66.2098 77.4112 64.7944 80.6775 63.1612 83.8349C62.7257 84.5971 62.3991 85.4681 62.1813 86.2302C61.7458 87.5367 61.4192 88.4078 61.3103 88.7344C60.9837 89.6054 60.6571 90.3675 60.2216 91.2386C55.9754 100.929 51.6203 110.619 47.0475 120.309H46.612C46.5031 120.309 46.3942 120.309 46.2854 120.2C41.3859 116.825 37.9019 114.32 35.9421 112.687C34.0912 111.163 33.1113 109.203 33.1113 106.59C33.0024 103.324 33.0024 100.058 33.0024 96.9001C33.0024 82.7462 33.1113 68.5922 33.1113 54.4383C33.1113 52.2607 33.1113 50.1921 33.2202 48.0146C33.2202 47.7968 33.329 47.7968 33.4379 47.9057C41.9303 54.1116 50.4227 60.3176 58.8062 66.5236C59.6772 67.1768 60.9837 68.2656 62.9435 69.7899C64.25 70.8786 65.6654 71.9674 67.1897 72.9473C67.2985 73.0562 67.4074 73.0562 67.4074 73.165C67.4074 73.2739 67.4074 73.3828 67.4074 73.4917C67.2985 74.0361 67.4074 74.1449 67.6252 74.1449Z" fill="#004AAD"/>
<path d="M87.9851 49.2122C88.2028 49.3211 88.3117 49.5388 88.2028 49.7566C87.0052 53.5673 85.4809 57.0513 83.7389 60.3176C83.7389 60.3176 83.5211 60.7531 83.0856 61.6241C82.6501 62.4951 82.1057 63.2573 81.3436 63.8017L87.9851 49.2122Z" fill="#014290"/>
<path d="M86.3519 87.1012L70.7826 87.2101C70.7826 87.2101 70.7826 87.2101 70.6737 87.2101C70.6737 87.2101 70.6737 87.2101 70.6737 87.1012C70.6737 87.1012 70.6737 87.1012 70.6737 86.9924L74.4844 79.2621C74.811 79.0444 75.0288 78.9355 75.2465 79.1533C76.1175 79.6976 77.6418 80.7864 79.9282 82.4195C80.6904 82.9639 81.7791 83.6172 83.1945 84.3793C84.1744 84.8148 85.2632 85.7947 86.3519 87.1012Z" fill="#0349A6"/>
<path d="M167.792 92.7628C168.009 95.9202 168.118 99.0777 168.118 102.235C168.118 105.61 168.009 107.788 167.792 108.659C167.356 110.183 166.594 111.598 165.396 112.687C165.287 112.796 164.09 113.667 161.803 115.409C158.102 118.24 155.597 119.982 154.4 120.744C149.391 123.902 144.492 127.277 139.919 130.978C137.742 132.721 136 134.027 134.693 135.007C129.685 138.709 124.676 142.411 119.559 146.112C118.906 146.548 117.926 147.201 116.62 147.854H104.97C104.861 131.632 104.861 115.409 104.97 99.2954C104.97 99.2954 104.97 99.1865 104.97 98.8599C104.97 98.3155 105.188 98.0978 105.841 98.2066C105.95 98.2066 106.059 98.2066 106.167 98.2066C106.494 98.2066 106.603 98.0978 106.276 97.88C121.628 97.7711 131.209 97.7711 135.129 97.7711C137.415 97.7711 139.81 97.6623 142.314 97.5534C145.581 97.3356 147.758 97.2268 148.847 97.1179C155.271 96.3557 161.586 94.9403 167.792 92.7628Z" fill="#004AAD"/>
<path d="M95.6064 95.3759C95.8242 112.796 95.8242 130.325 95.7153 147.745H93.9733C93.8644 147.419 93.6467 147.201 93.2112 147.31C92.7757 147.419 92.5579 147.419 92.449 147.419C89.5094 147.419 86.6786 147.31 83.9566 147.31C83.63 147.31 83.3034 147.201 82.9768 146.983C76.7708 142.519 70.5648 138.055 64.4677 133.483C63.7056 132.938 62.9435 132.394 62.3991 131.85C61.3103 130.979 60.6571 130.434 60.4393 130.216C58.2618 128.583 55.9754 126.841 53.689 125.208C56.5198 119.438 59.0239 113.994 61.2014 108.768C61.4192 108.332 61.5281 107.897 61.637 107.352C61.7458 106.808 61.9636 106.264 62.0725 105.937C63.4879 102.453 65.0121 99.0777 66.6453 95.5936C66.6453 95.4848 66.7542 95.4847 66.863 95.3759C66.9719 95.3759 67.0808 95.267 67.0808 95.267L95.6064 95.3759Z" fill="#004AAD"/>
</g>
<path d="M9.98918 164.65V158.64H6.63918L6.57918 160.34C6.55918 160.867 6.52585 161.373 6.47918 161.86C6.43918 162.34 6.37251 162.773 6.27918 163.16C6.19251 163.54 6.07251 163.85 5.91918 164.09C5.77251 164.33 5.57918 164.47 5.33918 164.51L4.52918 164.36C4.79585 164.373 5.01585 164.277 5.18918 164.07C5.36918 163.863 5.50585 163.573 5.59918 163.2C5.69918 162.827 5.77251 162.39 5.81918 161.89C5.86585 161.39 5.89918 160.85 5.91918 160.27L5.99918 158H10.7192V164.65H9.98918ZM4.26918 166.57L4.27918 164.36H11.7692V166.57H11.0792V165H4.96918L4.95918 166.57H4.26918ZM13.1086 165V159.75H13.8186V163.92L17.3286 159.75H17.9586V165H17.2486V160.82L13.7486 165H13.1086ZM21.296 165.06C20.916 165.06 20.5393 165.007 20.166 164.9C19.7926 164.793 19.4626 164.63 19.176 164.41L19.406 163.88C19.6593 164.067 19.9526 164.21 20.286 164.31C20.6193 164.403 20.9493 164.45 21.276 164.45C21.6026 164.443 21.886 164.397 22.126 164.31C22.366 164.223 22.5526 164.103 22.686 163.95C22.8193 163.797 22.886 163.623 22.886 163.43C22.886 163.15 22.7593 162.933 22.506 162.78C22.2526 162.62 21.906 162.54 21.466 162.54H20.566V162.02H21.416C21.676 162.02 21.906 161.987 22.106 161.92C22.306 161.853 22.4593 161.757 22.566 161.63C22.6793 161.503 22.736 161.353 22.736 161.18C22.736 160.993 22.6693 160.833 22.536 160.7C22.4093 160.567 22.2326 160.467 22.006 160.4C21.7793 160.333 21.5226 160.3 21.236 160.3C20.976 160.307 20.706 160.347 20.426 160.42C20.146 160.487 19.8693 160.59 19.596 160.73L19.396 160.18C19.7026 160.02 20.006 159.9 20.306 159.82C20.6126 159.733 20.9193 159.69 21.226 159.69C21.646 159.677 22.0226 159.727 22.356 159.84C22.696 159.953 22.966 160.117 23.166 160.33C23.366 160.537 23.466 160.787 23.466 161.08C23.466 161.34 23.386 161.567 23.226 161.76C23.066 161.953 22.8526 162.103 22.586 162.21C22.3193 162.317 22.016 162.37 21.676 162.37L21.706 162.18C22.306 162.18 22.7726 162.297 23.106 162.53C23.446 162.763 23.616 163.08 23.616 163.48C23.616 163.793 23.5126 164.07 23.306 164.31C23.0993 164.543 22.8193 164.727 22.466 164.86C22.1193 164.993 21.7293 165.06 21.296 165.06ZM28.4878 165V163.84L28.4578 163.65V161.71C28.4578 161.263 28.3311 160.92 28.0778 160.68C27.8311 160.44 27.4611 160.32 26.9678 160.32C26.6278 160.32 26.3044 160.377 25.9978 160.49C25.6911 160.603 25.4311 160.753 25.2178 160.94L24.8978 160.41C25.1644 160.183 25.4844 160.01 25.8578 159.89C26.2311 159.763 26.6244 159.7 27.0378 159.7C27.7178 159.7 28.2411 159.87 28.6078 160.21C28.9811 160.543 29.1678 161.053 29.1678 161.74V165H28.4878ZM26.6778 165.05C26.2844 165.05 25.9411 164.987 25.6478 164.86C25.3611 164.727 25.1411 164.547 24.9878 164.32C24.8344 164.087 24.7578 163.82 24.7578 163.52C24.7578 163.247 24.8211 163 24.9478 162.78C25.0811 162.553 25.2944 162.373 25.5878 162.24C25.8878 162.1 26.2878 162.03 26.7878 162.03H28.5978V162.56H26.8078C26.3011 162.56 25.9478 162.65 25.7478 162.83C25.5544 163.01 25.4578 163.233 25.4578 163.5C25.4578 163.8 25.5744 164.04 25.8078 164.22C26.0411 164.4 26.3678 164.49 26.7878 164.49C27.1878 164.49 27.5311 164.4 27.8178 164.22C28.1111 164.033 28.3244 163.767 28.4578 163.42L28.6178 163.91C28.4844 164.257 28.2511 164.533 27.9178 164.74C27.5911 164.947 27.1778 165.05 26.6778 165.05ZM31.0579 165V159.75H31.7679V163.92L35.2779 159.75H35.9079V165H35.1979V160.82L31.6979 165H31.0579ZM33.4379 158.99C32.9979 158.99 32.6412 158.88 32.3679 158.66C32.1012 158.433 31.9612 158.11 31.9479 157.69H32.4579C32.4645 157.957 32.5579 158.167 32.7379 158.32C32.9179 158.473 33.1512 158.55 33.4379 158.55C33.7245 158.55 33.9579 158.473 34.1379 158.32C34.3245 158.167 34.4212 157.957 34.4279 157.69H34.9379C34.9312 158.11 34.7912 158.433 34.5179 158.66C34.2445 158.88 33.8845 158.99 33.4379 158.99ZM37.9426 165V159.75H38.6526V162.07H41.9626V159.75H42.6726V165H41.9626V162.68H38.6526V165H37.9426ZM44.2807 162.6V161.98H46.9007V162.6H44.2807ZM50.8067 165.05C50.2867 165.05 49.82 164.937 49.4067 164.71C49 164.477 48.68 164.16 48.4467 163.76C48.2133 163.353 48.0967 162.89 48.0967 162.37C48.0967 161.843 48.2133 161.38 48.4467 160.98C48.68 160.58 49 160.267 49.4067 160.04C49.82 159.813 50.2867 159.7 50.8067 159.7C51.2533 159.7 51.6567 159.787 52.0167 159.96C52.3767 160.133 52.66 160.393 52.8667 160.74L52.3367 161.1C52.1567 160.833 51.9333 160.637 51.6667 160.51C51.4 160.383 51.11 160.32 50.7967 160.32C50.4233 160.32 50.0867 160.407 49.7867 160.58C49.4867 160.747 49.25 160.983 49.0767 161.29C48.9033 161.597 48.8167 161.957 48.8167 162.37C48.8167 162.783 48.9033 163.143 49.0767 163.45C49.25 163.757 49.4867 163.997 49.7867 164.17C50.0867 164.337 50.4233 164.42 50.7967 164.42C51.11 164.42 51.4 164.357 51.6667 164.23C51.9333 164.103 52.1567 163.91 52.3367 163.65L52.8667 164.01C52.66 164.35 52.3767 164.61 52.0167 164.79C51.6567 164.963 51.2533 165.05 50.8067 165.05ZM55.1438 165V160.18L55.3238 160.37H53.1538V159.75H57.8438V160.37H55.6738L55.8538 160.18V165H55.1438ZM58.9604 166.99C58.7137 166.99 58.477 166.95 58.2504 166.87C58.0304 166.79 57.8404 166.67 57.6804 166.51L58.0104 165.98C58.1437 166.107 58.287 166.203 58.4404 166.27C58.6004 166.343 58.777 166.38 58.9704 166.38C59.2037 166.38 59.4037 166.313 59.5704 166.18C59.7437 166.053 59.907 165.827 60.0604 165.5L60.4004 164.73L60.4804 164.62L62.6404 159.75H63.3404L60.7104 165.63C60.5637 165.97 60.4004 166.24 60.2204 166.44C60.047 166.64 59.857 166.78 59.6504 166.86C59.4437 166.947 59.2137 166.99 58.9604 166.99ZM60.3604 165.15L57.9404 159.75H58.6804L60.8204 164.57L60.3604 165.15ZM67.8219 164.66V160.37H65.2919L65.2319 161.54C65.2186 161.893 65.1952 162.24 65.1619 162.58C65.1352 162.92 65.0852 163.233 65.0119 163.52C64.9452 163.8 64.8486 164.03 64.7219 164.21C64.5952 164.383 64.4319 164.483 64.2319 164.51L63.5219 164.38C63.7286 164.387 63.8986 164.313 64.0319 164.16C64.1652 164 64.2686 163.783 64.3419 163.51C64.4152 163.237 64.4686 162.927 64.5019 162.58C64.5352 162.227 64.5619 161.867 64.5819 161.5L64.6519 159.75H68.5319V164.66H67.8219ZM63.3019 166.27V164.38H69.3519V166.27H68.6819V165H63.9719V166.27H63.3019ZM70.7356 165V159.75H71.4456V163.92L74.9556 159.75H75.5856V165H74.8756V160.82L71.3756 165H70.7356ZM81.0104 165V163.11L81.1404 163.26H79.3604C78.687 163.26 78.1604 163.113 77.7804 162.82C77.4004 162.527 77.2104 162.1 77.2104 161.54C77.2104 160.94 77.4137 160.493 77.8204 160.2C78.227 159.9 78.7704 159.75 79.4504 159.75H81.6604V165H81.0104ZM77.1704 165L78.6104 162.98H79.3504L77.9404 165H77.1704ZM81.0104 162.9V160.16L81.1404 160.37H79.4704C78.9837 160.37 78.6037 160.463 78.3304 160.65C78.0637 160.837 77.9304 161.14 77.9304 161.56C77.9304 162.34 78.427 162.73 79.4204 162.73H81.1404L81.0104 162.9ZM86.432 165V158H89.452C90.232 158 90.8353 158.157 91.262 158.47C91.6953 158.783 91.912 159.227 91.912 159.8C91.912 160.18 91.822 160.5 91.642 160.76C91.4687 161.02 91.2287 161.217 90.922 161.35C90.622 161.483 90.292 161.55 89.932 161.55L90.102 161.31C90.5487 161.31 90.932 161.38 91.252 161.52C91.5787 161.653 91.832 161.857 92.012 162.13C92.192 162.397 92.282 162.73 92.282 163.13C92.282 163.723 92.062 164.183 91.622 164.51C91.1887 164.837 90.532 165 89.652 165H86.432ZM87.172 164.39H89.642C90.2553 164.39 90.7253 164.287 91.052 164.08C91.3787 163.867 91.542 163.53 91.542 163.07C91.542 162.617 91.3787 162.287 91.052 162.08C90.7253 161.867 90.2553 161.76 89.642 161.76H87.092V161.15H89.402C89.962 161.15 90.3953 161.043 90.702 160.83C91.0153 160.617 91.172 160.3 91.172 159.88C91.172 159.453 91.0153 159.137 90.702 158.93C90.3953 158.717 89.962 158.61 89.402 158.61H87.172V164.39ZM95.4946 165V162.4L95.6646 162.86L92.6946 158H93.4846L96.0946 162.27H95.6746L98.2846 158H99.0246L96.0546 162.86L96.2246 162.4V165H95.4946ZM101.799 165L104.999 158H105.729L108.929 165H108.149L105.209 158.43H105.509L102.569 165H101.799ZM103.059 163.13L103.279 162.53H107.349L107.569 163.13H103.059ZM109.141 164.99L109.191 164.38C109.237 164.387 109.281 164.397 109.321 164.41C109.367 164.417 109.407 164.42 109.441 164.42C109.654 164.42 109.824 164.34 109.951 164.18C110.084 164.02 110.184 163.807 110.251 163.54C110.317 163.273 110.364 162.973 110.391 162.64C110.417 162.3 110.441 161.96 110.461 161.62L110.551 159.75H114.401V165H113.691V160.16L113.871 160.37H111.011L111.181 160.15L111.101 161.67C111.081 162.123 111.044 162.557 110.991 162.97C110.944 163.383 110.867 163.747 110.761 164.06C110.661 164.373 110.521 164.62 110.341 164.8C110.161 164.973 109.931 165.06 109.651 165.06C109.571 165.06 109.487 165.053 109.401 165.04C109.321 165.027 109.234 165.01 109.141 164.99ZM118.669 165.05C118.123 165.05 117.643 164.937 117.229 164.71C116.816 164.477 116.493 164.16 116.259 163.76C116.026 163.353 115.909 162.89 115.909 162.37C115.909 161.85 116.019 161.39 116.239 160.99C116.466 160.59 116.773 160.277 117.159 160.05C117.553 159.817 117.993 159.7 118.479 159.7C118.973 159.7 119.409 159.813 119.789 160.04C120.176 160.26 120.479 160.573 120.699 160.98C120.919 161.38 121.029 161.843 121.029 162.37C121.029 162.403 121.026 162.44 121.019 162.48C121.019 162.513 121.019 162.55 121.019 162.59H116.449V162.06H120.639L120.359 162.27C120.359 161.89 120.276 161.553 120.109 161.26C119.949 160.96 119.729 160.727 119.449 160.56C119.169 160.393 118.846 160.31 118.479 160.31C118.119 160.31 117.796 160.393 117.509 160.56C117.223 160.727 116.999 160.96 116.839 161.26C116.679 161.56 116.599 161.903 116.599 162.29V162.4C116.599 162.8 116.686 163.153 116.859 163.46C117.039 163.76 117.286 163.997 117.599 164.17C117.919 164.337 118.283 164.42 118.689 164.42C119.009 164.42 119.306 164.363 119.579 164.25C119.859 164.137 120.099 163.963 120.299 163.73L120.699 164.19C120.466 164.47 120.173 164.683 119.819 164.83C119.473 164.977 119.089 165.05 118.669 165.05ZM119.369 158.7C119.256 158.7 119.156 158.66 119.069 158.58C118.983 158.5 118.939 158.397 118.939 158.27C118.939 158.143 118.983 158.04 119.069 157.96C119.156 157.88 119.256 157.84 119.369 157.84C119.489 157.84 119.589 157.88 119.669 157.96C119.756 158.04 119.799 158.143 119.799 158.27C119.799 158.397 119.756 158.5 119.669 158.58C119.589 158.66 119.489 158.7 119.369 158.7ZM117.589 158.7C117.469 158.7 117.366 158.66 117.279 158.58C117.199 158.5 117.159 158.397 117.159 158.27C117.159 158.143 117.199 158.04 117.279 157.96C117.366 157.88 117.469 157.84 117.589 157.84C117.703 157.84 117.803 157.88 117.889 157.96C117.976 158.04 118.019 158.143 118.019 158.27C118.019 158.397 117.976 158.5 117.889 158.58C117.803 158.66 117.703 158.7 117.589 158.7ZM122.601 165V159.75H123.311V162.07H126.621V159.75H127.331V165H126.621V162.68H123.311V165H122.601ZM132.609 165V163.84L132.579 163.65V161.71C132.579 161.263 132.452 160.92 132.199 160.68C131.952 160.44 131.582 160.32 131.089 160.32C130.749 160.32 130.426 160.377 130.119 160.49C129.812 160.603 129.552 160.753 129.339 160.94L129.019 160.41C129.286 160.183 129.606 160.01 129.979 159.89C130.352 159.763 130.746 159.7 131.159 159.7C131.839 159.7 132.362 159.87 132.729 160.21C133.102 160.543 133.289 161.053 133.289 161.74V165H132.609ZM130.799 165.05C130.406 165.05 130.062 164.987 129.769 164.86C129.482 164.727 129.262 164.547 129.109 164.32C128.956 164.087 128.879 163.82 128.879 163.52C128.879 163.247 128.942 163 129.069 162.78C129.202 162.553 129.416 162.373 129.709 162.24C130.009 162.1 130.409 162.03 130.909 162.03H132.719V162.56H130.929C130.422 162.56 130.069 162.65 129.869 162.83C129.676 163.01 129.579 163.233 129.579 163.5C129.579 163.8 129.696 164.04 129.929 164.22C130.162 164.4 130.489 164.49 130.909 164.49C131.309 164.49 131.652 164.4 131.939 164.22C132.232 164.033 132.446 163.767 132.579 163.42L132.739 163.91C132.606 164.257 132.372 164.533 132.039 164.74C131.712 164.947 131.299 165.05 130.799 165.05ZM137.966 165V158H140.586C141.179 158 141.689 158.097 142.116 158.29C142.543 158.477 142.869 158.75 143.096 159.11C143.329 159.463 143.446 159.893 143.446 160.4C143.446 160.893 143.329 161.32 143.096 161.68C142.869 162.033 142.543 162.307 142.116 162.5C141.689 162.693 141.179 162.79 140.586 162.79H138.376L138.706 162.44V165H137.966ZM138.706 162.5L138.376 162.14H140.566C141.266 162.14 141.796 161.99 142.156 161.69C142.523 161.383 142.706 160.953 142.706 160.4C142.706 159.84 142.523 159.407 142.156 159.1C141.796 158.793 141.266 158.64 140.566 158.64H138.376L138.706 158.29V162.5ZM147.009 165.05C146.462 165.05 145.982 164.937 145.569 164.71C145.156 164.477 144.832 164.16 144.599 163.76C144.366 163.353 144.249 162.89 144.249 162.37C144.249 161.85 144.359 161.39 144.579 160.99C144.806 160.59 145.112 160.277 145.499 160.05C145.892 159.817 146.332 159.7 146.819 159.7C147.312 159.7 147.749 159.813 148.129 160.04C148.516 160.26 148.819 160.573 149.039 160.98C149.259 161.38 149.369 161.843 149.369 162.37C149.369 162.403 149.366 162.44 149.359 162.48C149.359 162.513 149.359 162.55 149.359 162.59H144.789V162.06H148.979L148.699 162.27C148.699 161.89 148.616 161.553 148.449 161.26C148.289 160.96 148.069 160.727 147.789 160.56C147.509 160.393 147.186 160.31 146.819 160.31C146.459 160.31 146.136 160.393 145.849 160.56C145.562 160.727 145.339 160.96 145.179 161.26C145.019 161.56 144.939 161.903 144.939 162.29V162.4C144.939 162.8 145.026 163.153 145.199 163.46C145.379 163.76 145.626 163.997 145.939 164.17C146.259 164.337 146.622 164.42 147.029 164.42C147.349 164.42 147.646 164.363 147.919 164.25C148.199 164.137 148.439 163.963 148.639 163.73L149.039 164.19C148.806 164.47 148.512 164.683 148.159 164.83C147.812 164.977 147.429 165.05 147.009 165.05ZM153.301 165.06C152.874 165.06 152.494 164.99 152.161 164.85C151.834 164.71 151.554 164.497 151.321 164.21C151.087 163.923 150.911 163.57 150.791 163.15C150.671 162.723 150.611 162.23 150.611 161.67C150.611 161.17 150.657 160.733 150.751 160.36C150.844 159.98 150.974 159.653 151.141 159.38C151.307 159.107 151.501 158.877 151.721 158.69C151.947 158.497 152.191 158.343 152.451 158.23C152.717 158.11 152.991 158.02 153.271 157.96L155.631 157.41L155.751 158.07L153.531 158.57C153.391 158.603 153.221 158.65 153.021 158.71C152.827 158.77 152.627 158.86 152.421 158.98C152.221 159.1 152.034 159.267 151.861 159.48C151.687 159.693 151.547 159.97 151.441 160.31C151.341 160.643 151.291 161.06 151.291 161.56C151.291 161.667 151.294 161.753 151.301 161.82C151.307 161.88 151.314 161.947 151.321 162.02C151.334 162.087 151.344 162.187 151.351 162.32L151.041 162.06C151.114 161.653 151.264 161.3 151.491 161C151.717 160.693 152.001 160.457 152.341 160.29C152.687 160.117 153.071 160.03 153.491 160.03C153.977 160.03 154.411 160.137 154.791 160.35C155.171 160.557 155.467 160.847 155.681 161.22C155.901 161.593 156.011 162.027 156.011 162.52C156.011 163.007 155.897 163.443 155.671 163.83C155.451 164.217 155.137 164.52 154.731 164.74C154.324 164.953 153.847 165.06 153.301 165.06ZM153.381 164.47C153.754 164.47 154.084 164.387 154.371 164.22C154.657 164.047 154.881 163.813 155.041 163.52C155.207 163.227 155.291 162.897 155.291 162.53C155.291 162.17 155.207 161.85 155.041 161.57C154.881 161.29 154.657 161.07 154.371 160.91C154.084 160.743 153.751 160.66 153.371 160.66C152.997 160.66 152.667 160.74 152.381 160.9C152.094 161.053 151.867 161.27 151.701 161.55C151.541 161.83 151.461 162.153 151.461 162.52C151.461 162.887 151.541 163.217 151.701 163.51C151.867 163.803 152.094 164.037 152.381 164.21C152.674 164.383 153.007 164.47 153.381 164.47ZM160.242 165.05C159.789 165.05 159.379 164.947 159.012 164.74C158.646 164.527 158.352 164.223 158.132 163.83C157.919 163.43 157.812 162.943 157.812 162.37C157.812 161.797 157.919 161.313 158.132 160.92C158.346 160.52 158.636 160.217 159.002 160.01C159.369 159.803 159.782 159.7 160.242 159.7C160.742 159.7 161.189 159.813 161.582 160.04C161.982 160.26 162.296 160.573 162.522 160.98C162.749 161.38 162.862 161.843 162.862 162.37C162.862 162.903 162.749 163.37 162.522 163.77C162.296 164.17 161.982 164.483 161.582 164.71C161.189 164.937 160.742 165.05 160.242 165.05ZM157.532 166.94V159.75H158.212V161.33L158.142 162.38L158.242 163.44V166.94H157.532ZM160.192 164.42C160.566 164.42 160.899 164.337 161.192 164.17C161.486 163.997 161.719 163.757 161.892 163.45C162.066 163.137 162.152 162.777 162.152 162.37C162.152 161.963 162.066 161.607 161.892 161.3C161.719 160.993 161.486 160.753 161.192 160.58C160.899 160.407 160.566 160.32 160.192 160.32C159.819 160.32 159.482 160.407 159.182 160.58C158.889 160.753 158.656 160.993 158.482 161.3C158.316 161.607 158.232 161.963 158.232 162.37C158.232 162.777 158.316 163.137 158.482 163.45C158.656 163.757 158.889 163.997 159.182 164.17C159.482 164.337 159.819 164.42 160.192 164.42ZM164.388 165V159.75H165.098V163.92L168.608 159.75H169.238V165H168.528V160.82L165.028 165H164.388ZM171.273 165V159.75H171.983V162.07H175.293V159.75H176.003V165H175.293V162.68H171.983V165H171.273ZM181.281 165V163.84L181.251 163.65V161.71C181.251 161.263 181.124 160.92 180.871 160.68C180.624 160.44 180.254 160.32 179.761 160.32C179.421 160.32 179.097 160.377 178.791 160.49C178.484 160.603 178.224 160.753 178.011 160.94L177.691 160.41C177.957 160.183 178.277 160.01 178.651 159.89C179.024 159.763 179.417 159.7 179.831 159.7C180.511 159.7 181.034 159.87 181.401 160.21C181.774 160.543 181.961 161.053 181.961 161.74V165H181.281ZM179.471 165.05C179.077 165.05 178.734 164.987 178.441 164.86C178.154 164.727 177.934 164.547 177.781 164.32C177.627 164.087 177.551 163.82 177.551 163.52C177.551 163.247 177.614 163 177.741 162.78C177.874 162.553 178.087 162.373 178.381 162.24C178.681 162.1 179.081 162.03 179.581 162.03H181.391V162.56H179.601C179.094 162.56 178.741 162.65 178.541 162.83C178.347 163.01 178.251 163.233 178.251 163.5C178.251 163.8 178.367 164.04 178.601 164.22C178.834 164.4 179.161 164.49 179.581 164.49C179.981 164.49 180.324 164.4 180.611 164.22C180.904 164.033 181.117 163.767 181.251 163.42L181.411 163.91C181.277 164.257 181.044 164.533 180.711 164.74C180.384 164.947 179.971 165.05 179.471 165.05Z" fill="white"/>
<defs>
<clipPath id="clip0_3_731">
<rect width="167.779" height="157" fill="white" transform="translate(19.6106)"/>
</clipPath>
</defs>
</svg>
