<?xml version="1.0" encoding="UTF-8" standalone="no"?>
<!-- Generator: Adobe Illustrator 26.2.1, SVG Export Plug-In . SVG Version: 6.00 Build 0)  -->

<svg
   version="1.1"
   id="Слой_1"
   x="0px"
   y="0px"
   viewBox="0 0 156.19999 147.99901"
   xml:space="preserve"
   sodipodi:docname="logo-light.svg"
   inkscape:export-filename="../../../../../../Downloads/logo-light.svg"
   inkscape:export-xdpi="96"
   inkscape:export-ydpi="96"
   inkscape:version="1.2.2 (b0a84865, 2022-12-01)"
   width="156.2"
   height="147.99901"
   xmlns:inkscape="http://www.inkscape.org/namespaces/inkscape"
   xmlns:sodipodi="http://sodipodi.sourceforge.net/DTD/sodipodi-0.dtd"
   xmlns="http://www.w3.org/2000/svg"
   xmlns:svg="http://www.w3.org/2000/svg"><defs
   id="defs297" /><sodipodi:namedview
   id="namedview295"
   pagecolor="#ffffff"
   bordercolor="#000000"
   borderopacity="0.25"
   inkscape:showpageshadow="2"
   inkscape:pageopacity="0.0"
   inkscape:pagecheckerboard="0"
   inkscape:deskcolor="#d1d1d1"
   showgrid="false"
   inkscape:zoom="1.475"
   inkscape:cx="78.983051"
   inkscape:cy="75.59322"
   inkscape:window-width="1781"
   inkscape:window-height="999"
   inkscape:window-x="0"
   inkscape:window-y="25"
   inkscape:window-maximized="0"
   inkscape:current-layer="Слой_1" />
<style
   type="text/css"
   id="style132">
	.st0{fill:none;stroke:#808080;stroke-width:2;}
	.st1{fill:none;stroke:#002557;stroke-width:2;}
	.st2{fill:none;stroke:#80A5D6;stroke-width:2;}
	.st3{fill:none;stroke:#808488;stroke-width:2;}
	.st4{fill:none;stroke:#00295F;stroke-width:2;}
	.st5{fill:none;stroke:#80A1C8;stroke-width:2;}
	.st6{fill:none;stroke:#81A4D3;stroke-width:2;}
	.st7{fill:none;stroke:#01469F;stroke-width:2;}
	.st8{fill:none;stroke:#022553;stroke-width:2;}
	.st9{fill:#004AAD;}
	.st10{fill:#FFFFFF;}
	.st11{fill:#014290;}
	.st12{fill:#0349A6;}
	.st13{fill:#000810;}
	.st14{fill:#EBECEB;}
	.st15{fill:#818181;}
</style>















<g
   id="g1397"
   inkscape:export-filename="../../../../../../Downloads/g1397.svg"
   inkscape:export-xdpi="96"
   inkscape:export-ydpi="96"
   transform="translate(-15.8,-9.9161278e-4)"><g
     id="Group"
     inkscape:export-filename="Group.svg"
     inkscape:export-xdpi="96"
     inkscape:export-ydpi="96">
	<path
   id="Vector"
   class="st0"
   d="m 75.6,10.2 -5.7,0.1 h -0.1 v 0.1 l -0.1,3.7" />
	<path
   id="Vector_2"
   class="st1"
   d="m 69.7,14.1 c -0.7,0 -1.2,0.1 -1.7,0.5 -0.4,0.3 -0.7,0.5 -0.7,0.5 -5.6,3.7 -9.1,6 -10.3,7 -1.7,1.3 -4,3 -7.1,5.1 -5.4,3.7 -10.9,7.4 -16.4,11.1 l -0.1,0.1 v 0.1 0.1 c 0,0 0,0.1 0.1,0.1 1.3,1.1 2.7,2 4.2,2.9 2,1.2 3.9,2.5 5.7,3.8 3.3,2.4 6.7,4.8 10,7.3 0.5,0.4 1.4,1.1 2.6,2.2 1.2,1.1 3.9,3 8,5.8 0.1,0.1 0.4,0.1 0.7,0" />
	<path
   id="Vector_3"
   class="st0"
   d="m 64.6,60.8 -3.7,8.4" />
	<path
   id="Vector_4"
   class="st1"
   d="m 60.9,69.2 c -0.2,0 -0.3,-0.1 -0.2,-0.4 0,-0.1 0,-0.2 0,-0.3 0,-0.1 -0.1,-0.2 -0.2,-0.2 -1.4,-0.9 -2.7,-1.9 -3.9,-2.9 -1.8,-1.5 -3,-2.5 -3.8,-3 C 45,56.7 37.2,51 29.5,45.3 c -0.1,-0.1 -0.2,-0.1 -0.2,0.1 0,2 -0.1,3.9 -0.1,5.9 0,13 -0.1,26 -0.1,39 0,3 0,6 0.1,8.9 0,2.4 0.9,4.2 2.6,5.6 1.8,1.4 5,3.7 9.5,6.9 0.1,0.1 0.2,0.1 0.3,0.1 H 42" />
	<path
   id="Vector_5"
   class="st0"
   d="m 42,111.6 c -4.1,8.7 -8,17.4 -11.9,26.1 0,0.1 -0.1,0.2 -0.2,0.2 -0.1,0.1 -0.2,0.1 -0.3,0.1 H 17 16.9 v 0.1 l -0.1,7.1 v 0.1 0.1 c 0,0 0,0 0.1,0 H 17 50.7 c 0.1,0 0.1,0 0.2,-0.1 0,0 0.1,-0.1 0.1,-0.2 v -7 c 0,-0.1 0,-0.1 -0.1,-0.2 l -0.1,-0.1 H 38.5 c 0,0 0,0 -0.1,0 v 0 c 0,0 0,0 0,-0.1 0,0 0,0 0,-0.1 l 9.8,-21.7" />
	<path
   id="Vector_6"
   class="st1"
   d="m 48.2,116.1 c 2.1,1.5 4.1,3.1 6.2,4.6 0.2,0.2 0.8,0.7 1.8,1.5 0.5,0.4 1.1,0.9 1.9,1.5 5.6,4.2 11.3,8.3 17,12.4 0.3,0.2 0.6,0.3 0.9,0.3 2.5,0 5.1,0 7.8,0.1 0.1,0 0.3,0 0.7,-0.1 0.4,-0.1 0.6,0.1 0.7,0.4" />
	<path
   id="Vector_7"
   class="st0"
   d="M 85.1,136.7 H 69.8 c -0.1,0 -0.1,0 -0.1,0.1 l -0.1,0.1 v 7.4 0.1 h 0.1 c 14.1,0.1 28.3,0.1 42.4,0 h 0.1 v -0.1 -7.4 c 0,-0.1 0,-0.1 -0.1,-0.1 l -0.1,-0.1 h -6" />
	<path
   id="Vector_8"
   class="st1"
   d="m 105.9,136.7 c 1.2,-0.6 2.1,-1.1 2.7,-1.6 4.6,-3.4 9.2,-6.8 13.9,-10.2 1.2,-0.9 2.8,-2.1 4.8,-3.7 4.2,-3.4 8.7,-6.5 13.3,-9.4 1.1,-0.7 3.3,-2.3 6.8,-4.9 2.1,-1.6 3.2,-2.4 3.3,-2.5 1.1,-1 1.8,-2.3 2.2,-3.7 0.2,-0.8 0.3,-2.7 0.3,-5.9 0,-2.9 -0.1,-5.8 -0.3,-8.7" />
	<path
   id="Vector_9"
   class="st0"
   d="m 152.9,86.2 c 2.2,-0.9 4.4,-2.1 6.5,-3.5 0.8,-0.5 1.5,-1.2 2.2,-1.9 0.8,-0.9 1.6,-1.8 2.4,-2.7 0.7,-0.8 1.3,-1.4 1.7,-2.1 1.7,-2.7 2.9,-5.6 3.7,-8.7 1.1,-4.4 1.6,-9 1.6,-13.6 0,-1.9 -0.1,-3.9 -0.2,-6 -0.2,-4.1 -0.8,-7.9 -1.7,-11.5 -1.3,-5 -3.6,-9.6 -7,-13.6 -1.2,-1.4 -2.5,-2.7 -4,-3.8 -3.1,-2.2 -6.4,-3.9 -10.1,-5 -3.8,-1.2 -7.6,-2 -11.5,-2.5 -3.6,-0.4 -7.1,-0.7 -10.7,-0.9 -1.5,-0.1 -3.6,-0.1 -6.1,-0.1 -4.2,0 -8.4,0 -12.7,-0.1" />
	<path
   id="Vector_10"
   class="st1"
   d="M 106.9,10.2 C 106.5,9.6 106,9.1 105.5,8.7 104.6,8 103.5,7.5 102.4,6.9 101.3,6.4 99.3,5.1 96.4,3 95.4,2.2 94.4,1.7 93.4,1.4 92.2,1 91,0.9 89.8,1.1 89,1.3 87.9,1.7 86.6,2.5 c -1.5,0.9 -3,1.9 -4.4,2.9 -0.7,0.5 -1.7,1.1 -3,1.7 -1.1,0.5 -2.3,1.3 -3.6,2.4 l -0.1,0.1 v 0.1 l 0.1,0.4" />
	<path
   id="Vector_11"
   class="st2"
   d="m 106.9,10.2 c -0.9,0.1 -2.1,0.1 -3.7,0.1 -8,0 -16.1,0 -24.1,0 -1.6,0 -2.7,0 -3.5,-0.1" />
	<path
   id="Vector_12"
   class="st2"
   d="m 152.9,86.2 c -5.7,2 -11.5,3.3 -17.4,3.8 -1,0.1 -3,0.2 -6,0.4 -2.3,0.1 -4.5,0.2 -6.6,0.2 -3.6,0 -12.4,0.1 -26.5,0.1" />
	<path
   id="Vector_13"
   class="st0"
   d="m 96.4,90.8 h -1.8 -0.1 c 0,0 0,0 0,0.1 0,15 0,29.9 0,44.7 0,0 0,0.2 0,0.4 0,0.6 0.2,0.8 0.8,0.6" />
	<path
   id="Vector_14"
   class="st2"
   d="m 95.2,136.7 h 10.7" />
	<path
   id="Vector_15"
   class="st2"
   d="m 85.1,136.7 h 1.6" />
	<path
   id="Vector_16"
   class="st3"
   d="m 86.7,136.7 h 0.4 c 0,0 0,0 0.1,0 v 0 c 0,0 0,0 0,-0.1 0,0 0,0 0,-0.1 0,-15.7 0,-31.5 0,-47.2 0,-0.7 -0.2,-0.9 -0.7,-0.8" />
	<path
   id="Vector_17"
   class="st2"
   d="M 86.6,88.6 H 60.5 c -0.1,0 -0.2,0 -0.2,0.1 -0.1,0 -0.1,0.1 -0.2,0.2 -1.5,3.1 -2.8,6.3 -4.2,9.5 -0.1,0.3 -0.3,0.8 -0.4,1.3 -0.1,0.5 -0.3,0.9 -0.4,1.3 -2.1,4.8 -4.4,9.9 -6.9,15.1" />
	<path
   id="Vector_18"
   class="st2"
   d="m 42,111.6 c 4.1,-8.9 8.1,-17.8 12.1,-26.7 0.3,-0.8 0.7,-1.5 1,-2.3 0.1,-0.3 0.4,-1.1 0.8,-2.3 0.3,-0.8 0.6,-1.5 0.9,-2.2 1.5,-2.9 2.8,-5.9 4.1,-8.9" />
	<path
   id="Vector_19"
   class="st2"
   d="m 64.6,60.8 c 1.7,-3.6 3.4,-7.3 5,-10.9 0.9,-1.9 1.7,-3.8 2.5,-5.5 2,-4.2 3.4,-7.1 4.1,-8.7 2.6,-5.9 5.3,-11.8 7.9,-17.6 v 0 0 0 0 H 69.9 69.8 c 0,0 0,-0.1 -0.1,-0.1 l -0.1,-3.6" />
	<path
   id="Vector_20"
   class="st4"
   d="m 86.6,88.6 c 0.2,16 0.2,32.1 0.1,48.1" />
	<path
   id="Vector_21"
   class="st1"
   d="m 95.2,136.7 c -0.1,-14.9 -0.1,-29.8 0,-44.6 0,0 0,-0.1 0,-0.4 0,-0.5 0.2,-0.7 0.8,-0.6 0.1,0 0.2,0 0.3,0 0.3,0 0.4,-0.1 0.1,-0.3" />
	<path
   id="Vector_53"
   class="st0"
   d="m 94.5,78 v 4.8 0.1 c 0,0 0,0.1 0.1,0.1 0,0 0.1,0 0.1,0.1 h 0.1 l 6.7,-0.1" />
	<path
   id="Vector_54"
   class="st2"
   d="m 101.4,83 c 9.7,0.2 19.4,0.1 29.1,-0.3 2,-0.1 3.8,-0.2 5.3,-0.4 1.7,-0.2 3.5,-0.5 5.2,-0.8 4,-0.8 7.8,-2 11.4,-3.8" />
	<path
   id="Vector_55"
   class="st0"
   d="m 152.4,77.7 c 4.2,-2.5 7.2,-6 8.9,-10.6 0.2,-0.4 0.3,-0.9 0.3,-1.5 0,-0.7 0.1,-1.2 0.2,-1.5 0.8,-3.7 1.3,-7.1 1.3,-10.2 0,-3.3 -0.3,-6.9 -0.9,-10.9 0,-0.1 -0.1,-0.7 -0.3,-1.7 -0.1,-0.6 -0.2,-1.1 -0.2,-1.7 -0.1,-0.9 -0.2,-1.6 -0.3,-2.1 -1.7,-5.9 -5.1,-10.4 -10.1,-13.6 -1.6,-1 -3.4,-1.9 -5.4,-2.7 -2.1,-0.8 -4.2,-1.4 -6.4,-1.8 -2.5,-0.5 -5,-0.8 -7.5,-1 -4,-0.3 -8,-0.4 -12.1,-0.4" />
	<path
   id="Vector_56"
   class="st2"
   d="M 119.7,17.9 H 94.6 94.5 V 18 77.9" />
	<path
   id="Vector_57"
   class="st1"
   d="m 119.7,17.9 c -0.1,0.3 0.1,0.5 0.3,0.7 1.7,1.1 3.4,2.2 5.1,3.4 0.2,0.1 0.8,0.6 1.9,1.5 0.6,0.4 1.2,0.9 1.9,1.4 6.6,4.5 13.3,9 19.9,13.6 0,0 0,0 0,0.1 0,0 0,0 0,0.1 0,0 0,0 0,0.1 0,0 0,0 0,0.1 -1.1,0.8 -2.2,1.6 -3.3,2.4 -0.3,0.2 -1,0.6 -2,1.2 -0.6,0.3 -1.3,0.8 -2,1.3 -4.4,3.2 -8.8,6.3 -13.1,9.5 -0.5,0.4 -1.1,0.9 -1.8,1.4 -0.7,0.6 -1.3,1.1 -1.8,1.5 -10.1,7.4 -20.2,14.8 -30.4,22" />
	<path
   id="Vector_58"
   class="st1"
   d="m 152.4,77.7 c -0.1,-0.2 -0.1,-0.4 0.2,-0.5 0.1,0 0.2,-0.1 0.3,-0.2 0.1,-0.1 0.1,-0.2 0.1,-0.3 0.1,-9.7 0.1,-19.4 0.1,-29 0,-0.8 -0.1,-1.6 -0.2,-2.4 0,-0.2 -0.1,-0.3 -0.3,-0.1 -1,0.8 -1.9,1.6 -2.9,2.2 -6.9,4.9 -13.7,9.9 -20.5,14.9 -0.5,0.4 -1.7,1.3 -3.5,2.8 -1,0.8 -2.2,1.7 -3.6,2.7 -3.7,2.7 -7.5,5.5 -11.2,8.2 -0.7,0.5 -1.7,1.1 -2.8,1.7 -2.5,1.3 -4.7,3 -6.8,5.2" />
	<path
   id="Vector_59"
   class="st5"
   d="M 79.6,46.3 73.5,59.8" />
	<path
   id="Vector_60"
   class="st2"
   d="m 73.5,59.7 -2.7,6" />
	<path
   id="Vector_61"
   class="st0"
   d="m 70.8,65.7 -3.6,8.2" />
	<path
   id="Vector_62"
   class="st6"
   d="M 67.2,73.9 63.7,81 c 0,0 0,0 0,0.1 0,0 0,0 0,0.1 v 0 c 0,0 0,0 0.1,0 L 78.1,81" />
	<path
   id="Vector_63"
   class="st0"
   d="m 78.1,81 h 9 c 0,0 0,0 0.1,0 0,0 0,0 0.1,0 0,0 0,0 0,-0.1 0,0 0,0 0,-0.1 v -3.4" />
	<path
   id="Vector_64"
   class="st2"
   d="m 87.3,77.5 0.1,-47.9 c 0,-0.1 0,-0.1 -0.1,0 l -7.7,16.6" />
	<path
   id="Vector_65"
   class="st1"
   d="m 87.3,77.5 c -0.2,0 -0.4,0 -0.5,-0.1 C 81.3,73.7 76,69.8 70.8,65.7" />
	<path
   id="Vector_66"
   class="st7"
   d="m 73.5,59.7 c 0.7,-0.5 1.3,-1.2 1.6,-2 0.4,-0.8 0.6,-1.2 0.6,-1.2 1.6,-3 2.9,-6.2 4.1,-9.7 0.1,-0.3 0,-0.4 -0.2,-0.5" />
	<path
   id="Vector_67"
   class="st8"
   d="m 78.1,81 c -1.1,-1.2 -2.1,-2.1 -3,-2.5 -1.4,-0.7 -2.4,-1.3 -3,-1.8 -2,-1.5 -3.4,-2.5 -4.3,-3 -0.2,-0.1 -0.4,-0.1 -0.7,0.1" />
</g><path
     id="Vector_82"
     class="st9"
     d="m 106.9,10.2 c -0.9,0.1 -2.1,0.1 -3.7,0.1 -8,0 -16.1,0 -24.1,0 -1.6,0 -2.7,0 -3.5,-0.1 L 75.5,9.8 V 9.7 c 0,0 0,-0.1 0.1,-0.1 1.3,-1.1 2.5,-1.9 3.6,-2.4 1.3,-0.6 2.3,-1.2 3,-1.7 1.4,-1 2.9,-2 4.4,-2.9 C 87.9,1.8 89,1.4 89.8,1.2 91,1 92.2,1.1 93.4,1.5 c 1,0.3 2,0.9 3,1.6 2.9,2.1 4.9,3.4 6,3.9 1.2,0.5 2.2,1.1 3.1,1.8 0.6,0.3 1,0.7 1.4,1.4 z" /><path
     id="Vector_83"
     class="st10"
     d="m 75.6,10.2 c 0.8,0.1 1.9,0.1 3.5,0.1 8,0 16.1,0 24.1,0 1.6,0 2.8,0 3.7,-0.1 4.2,0.1 8.4,0.1 12.7,0.1 2.5,0 4.5,0 6.1,0.1 3.6,0.2 7.2,0.5 10.7,0.9 3.9,0.5 7.8,1.3 11.5,2.5 3.6,1.1 7,2.8 10.1,5 1.5,1.1 2.8,2.3 4,3.8 3.4,4.1 5.7,8.6 7,13.6 0.9,3.6 1.5,7.4 1.7,11.5 0.1,2.2 0.2,4.2 0.2,6 0,4.6 -0.5,9.2 -1.6,13.6 -0.8,3.1 -2,6 -3.7,8.7 -0.4,0.6 -1,1.3 -1.7,2.1 -0.8,0.8 -1.6,1.7 -2.4,2.7 -0.6,0.8 -1.3,1.4 -2.2,1.9 -2.1,1.4 -4.2,2.5 -6.5,3.5 -5.7,2 -11.5,3.3 -17.4,3.8 -1,0.1 -3,0.2 -6,0.4 -2.3,0.1 -4.5,0.2 -6.6,0.2 -3.6,0 -12.4,0.1 -26.5,0.1 h -1.8 -0.1 c 0,0 0,0 0,0.1 0,15 0,29.9 0,44.7 0,0 0,0.2 0,0.4 0,0.6 0.2,0.8 0.8,0.6 h 10.7 6 c 0.1,0 0.1,0 0.1,0.1 l 0.1,0.1 v 7.4 0.1 H 112 c -14.1,0.1 -28.2,0.1 -42.4,0 h -0.1 v -0.1 -7.4 c 0,-0.1 0,-0.1 0.1,-0.1 l 0.1,-0.1 H 85 86.6 87 c 0,0 0,0 0.1,0 v 0 c 0,0 0,0 0,-0.1 0,0 0,0 0,-0.1 0,-15.7 0,-31.5 0,-47.2 0,-0.7 -0.2,-0.9 -0.7,-0.8 H 60.3 c -0.1,0 -0.2,0 -0.2,0.1 -0.1,0 -0.1,0.1 -0.2,0.2 -1.5,3.1 -2.8,6.3 -4.2,9.5 -0.1,0.3 -0.3,0.8 -0.4,1.3 -0.1,0.5 -0.3,0.9 -0.4,1.3 -2.1,4.8 -4.4,9.9 -6.9,15.1 l -9.8,21.7 c 0,0 0,0 0,0.1 0,0 0,0 0,0.1 v 0 c 0,0 0,0 0.1,0 h 12.5 c 0.1,0 0.1,0 0.1,0.1 0,0 0.1,0.1 0.1,0.2 v 7 c 0,0.1 0,0.1 -0.1,0.2 0,0 -0.1,0.1 -0.2,0.1 H 17 16.9 16.8 c 0,0 0,0 0,-0.1 v -0.1 l 0.1,-7.1 v -0.1 H 17 29.6 c 0.1,0 0.2,0 0.3,-0.1 0.1,0 0.1,-0.1 0.2,-0.2 3.9,-8.7 7.8,-17.4 11.9,-26.1 4.1,-8.9 8.1,-17.8 12.1,-26.7 0.3,-0.8 0.7,-1.5 1,-2.3 0.1,-0.3 0.4,-1.1 0.8,-2.3 0.3,-0.8 0.6,-1.5 0.9,-2.2 1.5,-2.9 2.8,-5.9 4.1,-8.9 l 3.7,-8.4 c 1.7,-3.6 3.4,-7.3 5,-10.9 0.9,-1.9 1.7,-3.8 2.5,-5.5 2,-4.2 3.4,-7.1 4.1,-8.7 2.6,-5.9 5.3,-11.8 7.9,-17.6 v 0 0 0 0 H 69.9 69.8 v -0.1 l -0.1,-3.6 0.1,-3.7 v -0.1 h 0.1 z M 94.5,78 v 4.8 0.1 c 0,0 0,0.1 0.1,0.1 0,0 0.1,0 0.1,0.1 h 0.1 l 6.7,-0.1 c 9.7,0.2 19.4,0.1 29.1,-0.3 2,-0.1 3.8,-0.2 5.3,-0.4 1.7,-0.2 3.5,-0.5 5.2,-0.8 4,-0.8 7.8,-2 11.4,-3.8 4.2,-2.5 7.2,-6 8.9,-10.6 0.2,-0.4 0.3,-0.9 0.3,-1.5 0,-0.7 0.1,-1.2 0.2,-1.5 0.8,-3.7 1.3,-7.1 1.3,-10.2 0,-3.3 -0.3,-6.9 -0.9,-10.9 0,-0.1 -0.1,-0.7 -0.3,-1.7 -0.1,-0.6 -0.2,-1.1 -0.2,-1.7 -0.1,-0.9 -0.2,-1.6 -0.3,-2.1 -1.7,-5.9 -5.1,-10.4 -10.1,-13.6 -1.6,-1 -3.4,-1.9 -5.4,-2.7 -2.1,-0.8 -4.2,-1.4 -6.4,-1.8 -2.5,-0.5 -5,-0.8 -7.5,-1 -4,-0.3 -8,-0.4 -12.1,-0.4 H 94.9 94.8 v 0.1 z M 79.6,46.3 73.5,59.8 70.8,65.7 67.2,73.9 63.7,81 c 0,0 0,0 0,0.1 0,0 0,0 0,0.1 v 0 c 0,0 0,0 0.1,0 L 78.1,81 h 9 c 0,0 0,0 0.1,0 0,0 0,0 0.1,0 0,0 0,0 0,-0.1 0,0 0,0 0,-0.1 v -3.4 l 0.1,-47.9 c 0,-0.1 0,-0.1 -0.1,0 z" /><path
     id="Vector_84"
     class="st9"
     d="m 69.7,14.1 0.1,3.6 v 0.1 h 0.1 14.2 v 0 0 0 0 c -2.7,5.9 -5.3,11.8 -7.9,17.6 -0.7,1.6 -2.1,4.5 -4.1,8.7 -0.8,1.7 -1.7,3.6 -2.5,5.5 -1.6,3.7 -3.3,7.3 -5,10.9 -0.3,0.1 -0.6,0.1 -0.7,0 C 59.8,58 57.1,56 55.9,55 54.7,53.9 53.8,53.2 53.3,52.8 50,50.4 46.6,48 43.3,45.5 41.4,44.1 39.5,42.9 37.6,41.7 36.1,40.8 34.8,39.8 33.5,38.8 l -0.1,-0.1 v -0.1 -0.1 c 0,0 0,-0.1 0.1,-0.1 5.5,-3.7 11,-7.4 16.4,-11.1 3,-2.1 5.4,-3.8 7.1,-5.1 1.2,-1 4.7,-3.3 10.3,-7 0,0 0.2,-0.2 0.7,-0.5 0.5,-0.5 1,-0.7 1.7,-0.6 z" /><path
     id="Vector_85"
     class="st9"
     d="m 119.7,17.9 c -0.1,0.3 0.1,0.5 0.3,0.7 1.7,1.1 3.4,2.2 5.1,3.4 0.2,0.1 0.8,0.6 1.9,1.5 0.6,0.4 1.2,0.9 1.9,1.4 6.6,4.5 13.3,9 19.9,13.6 0,0 0,0 0,0.1 0,0 0,0 0,0.1 0,0 0,0 0,0.1 0,0 0,0 0,0.1 -1.1,0.8 -2.2,1.6 -3.3,2.4 -0.3,0.2 -1,0.6 -2,1.2 -0.6,0.3 -1.3,0.8 -2,1.3 -4.4,3.2 -8.8,6.3 -13.1,9.5 -0.5,0.4 -1.1,0.9 -1.8,1.4 -0.7,0.6 -1.3,1.1 -1.8,1.5 -10.1,7.4 -20.2,14.8 -30.4,22 V 18.3 18.2 h 0.1 z" /><path
     id="Vector_87"
     class="st9"
     d="m 87.3,77.5 c -0.2,0 -0.4,0 -0.5,-0.1 C 81.3,73.7 76,69.8 70.8,65.7 l 2.7,-5.9 c 0.7,-0.5 1.3,-1.2 1.6,-2 0.4,-0.8 0.6,-1.2 0.6,-1.2 1.6,-3 2.9,-6.2 4.1,-9.7 0.1,-0.3 0,-0.4 -0.2,-0.5 l 7.7,-16.6 c 0,-0.1 0.1,-0.1 0.1,0 z" /><path
     id="Vector_88"
     class="st9"
     d="m 152.4,77.7 c -3.7,1.8 -7.5,3 -11.4,3.8 -1.7,0.3 -3.5,0.6 -5.2,0.8 -1.5,0.2 -3.2,0.3 -5.3,0.4 -9.7,0.4 -19.4,0.5 -29.1,0.3 2.1,-2.1 4.3,-3.8 6.8,-5.2 1.1,-0.6 2,-1.2 2.8,-1.7 3.7,-2.7 7.5,-5.5 11.2,-8.2 1.4,-1 2.6,-1.9 3.6,-2.7 1.8,-1.5 3,-2.4 3.5,-2.8 6.8,-5 13.6,-10 20.5,-14.9 1,-0.7 1.9,-1.4 2.9,-2.2 0.2,-0.1 0.3,-0.1 0.3,0.1 0.1,0.8 0.2,1.6 0.2,2.4 0,9.6 0,19.3 -0.1,29 0,0.1 0,0.2 -0.1,0.3 -0.1,0.1 -0.2,0.1 -0.3,0.2 -0.3,0 -0.4,0.1 -0.3,0.4 z" /><path
     id="Vector_89"
     class="st9"
     d="m 60.9,69.2 c -1.3,3 -2.6,6 -4.1,8.9 -0.4,0.7 -0.7,1.5 -0.9,2.2 -0.4,1.2 -0.7,2 -0.8,2.3 -0.3,0.8 -0.6,1.5 -1,2.3 -3.9,8.9 -7.9,17.8 -12.1,26.7 h -0.4 c -0.1,0 -0.2,0 -0.3,-0.1 -4.5,-3.1 -7.7,-5.4 -9.5,-6.9 -1.7,-1.4 -2.6,-3.2 -2.6,-5.6 -0.1,-3 -0.1,-6 -0.1,-8.9 0,-13 0.1,-26 0.1,-39 0,-2 0,-3.9 0.1,-5.9 0,-0.2 0.1,-0.2 0.2,-0.1 7.8,5.7 15.6,11.4 23.3,17.1 0.8,0.6 2,1.6 3.8,3 1.2,1 2.5,2 3.9,2.9 0.1,0.1 0.2,0.1 0.2,0.2 0,0.1 0,0.2 0,0.3 -0.1,0.4 0,0.5 0.2,0.6 z" /><path
     id="Vector_90"
     class="st11"
     d="m 79.6,46.3 c 0.2,0.1 0.3,0.3 0.2,0.5 -1.1,3.5 -2.5,6.7 -4.1,9.7 0,0 -0.2,0.4 -0.6,1.2 -0.4,0.8 -0.9,1.5 -1.6,2 z" /><path
     id="Vector_92"
     class="st12"
     d="m 78.1,81 -14.3,0.1 c 0,0 0,0 -0.1,0 v 0 c 0,0 0,0 0,-0.1 0,0 0,0 0,-0.1 l 3.5,-7.1 c 0.3,-0.2 0.5,-0.3 0.7,-0.1 0.8,0.5 2.2,1.5 4.3,3 0.7,0.5 1.7,1.1 3,1.8 0.9,0.4 1.9,1.3 2.9,2.5 z" /><path
     id="Vector_93"
     class="st9"
     d="m 152.9,86.2 c 0.2,2.9 0.3,5.8 0.3,8.7 0,3.1 -0.1,5.1 -0.3,5.9 -0.4,1.4 -1.1,2.7 -2.2,3.7 -0.1,0.1 -1.2,0.9 -3.3,2.5 -3.4,2.6 -5.7,4.2 -6.8,4.9 -4.6,2.9 -9.1,6 -13.3,9.4 -2,1.6 -3.6,2.8 -4.8,3.7 -4.6,3.4 -9.2,6.8 -13.9,10.2 -0.6,0.4 -1.5,1 -2.7,1.6 H 95.2 c -0.1,-14.9 -0.1,-29.8 0,-44.6 0,0 0,-0.1 0,-0.4 0,-0.5 0.2,-0.7 0.8,-0.6 0.1,0 0.2,0 0.3,0 0.3,0 0.4,-0.1 0.1,-0.3 14.1,-0.1 22.9,-0.1 26.5,-0.1 2.1,0 4.3,-0.1 6.6,-0.2 3,-0.2 5,-0.3 6,-0.4 5.9,-0.7 11.7,-2 17.4,-4 z" /><path
     id="Vector_94"
     class="st9"
     d="m 86.6,88.6 c 0.2,16 0.2,32.1 0.1,48.1 h -1.6 c -0.1,-0.3 -0.3,-0.5 -0.7,-0.4 -0.4,0.1 -0.6,0.1 -0.7,0.1 -2.7,0 -5.3,-0.1 -7.8,-0.1 -0.3,0 -0.6,-0.1 -0.9,-0.3 -5.7,-4.1 -11.4,-8.2 -17,-12.4 -0.7,-0.5 -1.4,-1 -1.9,-1.5 -1,-0.8 -1.6,-1.3 -1.8,-1.5 -2,-1.5 -4.1,-3.1 -6.2,-4.6 2.6,-5.3 4.9,-10.3 6.9,-15.1 0.2,-0.4 0.3,-0.8 0.4,-1.3 0.1,-0.5 0.3,-1 0.4,-1.3 1.3,-3.2 2.7,-6.3 4.2,-9.5 0,-0.1 0.1,-0.1 0.2,-0.2 0.1,0 0.2,-0.1 0.2,-0.1 z" /><path
     id="Vector_95"
     class="st13"
     d="m 86.6,88.6 c 0.5,-0.2 0.7,0.1 0.7,0.8 0,15.7 0,31.5 0,47.2 0,0 0,0 0,0.1 0,0 0,0 0,0.1 v 0 c 0,0 0,0 -0.1,0 h -0.4 c 0,-16.1 0,-32.1 -0.2,-48.2 z" /><path
     id="Vector_96"
     d="m 96.4,90.8 c 0.3,0.2 0.3,0.3 -0.1,0.3 -0.1,0 -0.2,0 -0.3,0 -0.6,-0.1 -0.9,0.1 -0.8,0.6 0,0.2 0,0.3 0,0.4 -0.1,14.9 -0.1,29.8 0,44.6 -0.6,0.2 -0.8,0 -0.8,-0.6 0,-0.3 0,-0.4 0,-0.4 0,-14.9 0,-29.8 0,-44.7 v -0.1 c 0,0 0,0 0.1,0 z" /><path
     id="Vector_97"
     class="st10"
     d="m 32.1,147.2 c 0.1,-0.1 0.1,-0.1 0,0 0.3,0.4 0.2,0.7 -0.1,0.8 0,0 0,0 -0.1,0 0,0 0,0 -0.1,0 0,0 0,0 0,-0.1 0,0 0,0 0,-0.1 0.1,-0.2 0.2,-0.4 0.3,-0.6 z" /><path
     id="Vector_99"
     class="st14"
     d="m 29.9,147.7 c 0.2,0.2 0.4,0.2 0.4,0.2 0.1,-0.1 0,-0.3 -0.1,-0.5 -0.2,-0.2 -0.4,-0.2 -0.4,-0.2 0,0 -0.1,0.4 0.1,0.5 z" /></g>


</svg>
