<svg width="260" height="260" viewBox="0 0 260 260" fill="none" xmlns="http://www.w3.org/2000/svg">
<rect x="14" y="14" width="232" height="232" rx="116" fill="black"/>
<path d="M137.049 203.322V224.94H129.491C127.985 224.94 126.743 224.679 125.764 224.159C124.786 223.645 124.058 222.952 123.579 222.079C123.101 221.214 122.862 220.253 122.862 219.198C122.862 218.268 123.027 217.501 123.358 216.896C123.681 216.291 124.111 215.813 124.646 215.46C125.173 215.109 125.747 214.849 126.366 214.68V214.469C125.705 214.426 125.04 214.194 124.371 213.772C123.703 213.35 123.143 212.744 122.693 211.956C122.242 211.168 122.017 210.204 122.017 209.064C122.017 207.981 122.263 207.006 122.756 206.14C123.249 205.275 124.026 204.588 125.089 204.082C126.151 203.575 127.534 203.322 129.237 203.322H137.049ZM134.431 205.644H129.237C127.527 205.644 126.313 205.975 125.596 206.636C124.871 207.305 124.508 208.114 124.508 209.064C124.508 209.796 124.695 210.472 125.068 211.091C125.441 211.717 125.972 212.216 126.662 212.59C127.351 212.969 128.168 213.16 129.111 213.16H134.431V205.644ZM134.431 215.44H129.575C128.787 215.44 128.076 215.594 127.443 215.904C126.802 216.213 126.296 216.65 125.923 217.213C125.543 217.776 125.353 218.438 125.353 219.198C125.353 220.148 125.684 220.954 126.345 221.614C127.007 222.283 128.055 222.617 129.491 222.617H134.431V215.44Z" fill="white"/>
<path d="M113.773 206.389L102.982 216.48L100.209 215.737L104.405 200.076L106.812 200.721L103.566 212.834L114.316 202.731L117.13 203.485L112.934 219.146L110.527 218.502L113.773 206.389Z" fill="white"/>
<path d="M102.382 194.5L98.8988 200.534L97.7287 199.859C97.2699 199.991 96.8366 200.172 96.4288 200.4C96.021 200.628 95.6037 200.936 95.177 201.322C94.7405 201.713 94.2687 202.22 93.7614 202.846C93.2506 203.477 92.6693 204.259 92.0174 205.19L88.3331 210.474L79.4109 205.323L86.3567 193.292L84.1992 192.047L87.6826 186.014L89.84 187.259L87.5177 191.282L97.9025 197.278L100.225 193.255L102.382 194.5ZM95.2788 198.444L88.514 194.538L82.7295 204.557L87.483 207.302L89.8966 203.966C90.8969 202.585 91.8265 201.411 92.6853 200.445C93.5442 199.478 94.4087 198.811 95.2788 198.444Z" fill="white"/>
<path d="M77.3896 182.006C78.4943 183.111 79.2034 184.307 79.5169 185.596C79.8204 186.885 79.7483 188.186 79.3004 189.5C78.8427 190.813 78.0266 192.057 76.8522 193.232C75.6779 194.406 74.4289 195.227 73.1053 195.694C71.7717 196.163 70.468 196.262 69.1941 195.994C67.9103 195.725 66.7509 195.073 65.7159 194.038C65.1187 193.44 64.6286 192.752 64.2454 191.97C63.8623 191.189 63.6558 190.336 63.626 189.41C63.5911 188.49 63.7977 187.522 64.2454 186.506C64.6933 185.492 65.4522 184.449 66.522 183.379L67.2684 182.633L76.1058 191.47L74.5832 192.993L67.5371 185.946C66.8903 186.593 66.4424 187.3 66.1936 188.067C65.9398 188.828 65.9025 189.592 66.0816 190.358C66.2558 191.12 66.6614 191.818 67.2983 192.455C67.9999 193.157 68.7812 193.59 69.642 193.754C70.4928 193.919 71.3314 193.861 72.1573 193.583C72.9834 193.303 73.7123 192.849 74.3443 192.216L75.3594 191.202C76.2253 190.336 76.81 189.452 77.1135 188.551C77.4071 187.651 77.4419 186.775 77.218 185.925C76.9891 185.079 76.5189 184.3 75.8073 183.588C75.3445 183.126 74.8618 182.772 74.3593 182.528C73.8467 182.284 73.3218 182.158 72.7843 182.148C72.2419 182.143 71.6971 182.265 71.1497 182.513L69.9256 180.333C70.682 179.936 71.4906 179.729 72.3514 179.714C73.2073 179.704 74.0681 179.889 74.9339 180.267C75.7949 180.649 76.6134 181.229 77.3896 182.006Z" fill="white"/>
<path d="M65.9367 166.989C66.6685 168.256 67.0091 169.542 66.9581 170.848C66.9036 172.147 66.4889 173.378 65.7137 174.54C64.935 175.696 63.8205 176.694 62.37 177.531C60.9073 178.375 59.4775 178.847 58.0805 178.947C56.68 179.04 55.4036 178.787 54.2514 178.184C53.0956 177.576 52.1518 176.638 51.4199 175.369C50.6881 174.102 50.3493 172.819 50.4038 171.52C50.4547 170.215 50.8725 168.982 51.6573 167.822C52.4386 166.656 53.5606 165.65 55.0231 164.806C56.4736 163.969 57.8961 163.505 59.2906 163.415C60.6814 163.319 61.9548 163.575 63.1105 164.184C64.2628 164.786 65.2049 165.721 65.9367 166.989ZM63.9987 168.108C63.4428 167.144 62.7385 166.494 61.886 166.159C61.0334 165.822 60.1187 165.736 59.1418 165.902C58.165 166.067 57.2073 166.422 56.2687 166.963C55.3302 167.505 54.5419 168.16 53.9037 168.926C53.2656 169.693 52.8761 170.531 52.7353 171.442C52.5944 172.351 52.802 173.288 53.3579 174.251C53.9138 175.214 54.6212 175.862 55.4798 176.195C56.3384 176.528 57.2592 176.61 58.2422 176.44C59.2252 176.271 60.1859 175.915 61.1244 175.373C62.0629 174.832 62.8483 174.179 63.4803 173.416C64.1124 172.653 64.4957 171.818 64.6305 170.912C64.7652 170.005 64.5547 169.071 63.9987 168.108Z" fill="white"/>
<path d="M57.0161 130.001C57.0161 131.465 56.6677 132.749 55.9711 133.854C55.2744 134.952 54.2997 135.81 53.0471 136.429C51.7945 137.042 50.3308 137.348 48.656 137.348C46.9671 137.348 45.4927 137.042 44.2331 136.429C42.9734 135.81 41.9953 134.952 41.2986 133.854C40.6019 132.749 40.2536 131.465 40.2536 130.001C40.2536 128.538 40.6019 127.257 41.2986 126.159C41.9953 125.054 42.9734 124.196 44.2331 123.583C45.4927 122.964 46.9671 122.655 48.656 122.655C50.3308 122.655 51.7945 122.964 53.0471 123.583C54.2997 124.196 55.2744 125.054 55.9711 126.159C56.6677 127.257 57.0161 128.538 57.0161 130.001ZM54.7783 130.001C54.7783 128.889 54.4932 127.975 53.9233 127.257C53.3533 126.539 52.6038 126.008 51.6749 125.663C50.746 125.318 49.7397 125.146 48.656 125.146C47.5723 125.146 46.5624 125.318 45.6265 125.663C44.6905 126.008 43.934 126.539 43.357 127.257C42.7799 127.975 42.4914 128.889 42.4914 130.001C42.4914 131.113 42.7799 132.028 43.357 132.746C43.934 133.464 44.6905 133.995 45.6265 134.34C46.5624 134.685 47.5723 134.857 48.656 134.857C49.7397 134.857 50.746 134.685 51.6749 134.34C52.6038 133.995 53.3533 133.464 53.9233 132.746C54.4932 132.028 54.7783 131.113 54.7783 130.001Z" fill="white"/>
<path d="M59.8759 84.3398L61.8871 85.5009L57.4115 93.2529L55.4004 92.0919L59.8759 84.3398ZM49.6624 88.0965L63.7038 96.2033L62.4583 98.3608L48.4169 90.2539L49.6624 88.0965ZM54.7926 79.2109L68.834 87.3177L67.5884 89.4752L53.547 81.3683L54.7926 79.2109Z" fill="white"/>
<path d="M77.0639 78.3797C76.3375 79.1062 75.5412 79.6287 74.6754 79.9472C73.8046 80.2607 72.9338 80.3303 72.063 80.1561C71.1872 79.977 70.3761 79.5143 69.6297 78.7679C68.9729 78.111 68.5698 77.4492 68.4206 76.7824C68.2663 76.1106 68.2887 75.4413 68.4878 74.7746C68.6868 74.1078 68.9903 73.4559 69.3984 72.819C69.8064 72.1721 70.2417 71.5476 70.7046 70.9455C71.3116 70.1593 71.8092 69.5274 72.1974 69.0497C72.5855 68.562 72.8219 68.1614 72.9065 67.8479C72.9961 67.5294 72.899 67.2284 72.6154 66.9447L72.5556 66.8851C71.8192 66.1486 71.0454 65.7779 70.2343 65.7729C69.4282 65.763 68.6197 66.1636 67.8086 66.9747C66.9675 67.8156 66.4923 68.659 66.3828 69.505C66.2735 70.3508 66.3306 71.0799 66.5546 71.6919L64.2855 72.7668C63.8874 71.7715 63.7431 70.8311 63.8526 69.9453C63.962 69.0497 64.2357 68.2286 64.6737 67.4822C65.1115 66.7259 65.619 66.059 66.1963 65.4818C66.5645 65.1136 67.0322 64.7354 67.5995 64.3473C68.1667 63.9493 68.8087 63.6606 69.5253 63.4815C70.2468 63.2974 71.028 63.3272 71.869 63.5711C72.7099 63.8149 73.5857 64.3921 74.4963 65.3027L82.0499 72.8564L80.2884 74.6179L78.7359 73.0653L78.6463 73.1549C78.7757 73.5231 78.8429 73.9884 78.8478 74.5507C78.8528 75.113 78.7235 75.725 78.4597 76.3868C78.196 77.0486 77.7308 77.7129 77.0639 78.3797ZM75.7503 76.5286C76.4469 75.8319 76.8973 75.1079 77.1013 74.3566C77.3103 73.6002 77.3202 72.8837 77.1311 72.207C76.947 71.5252 76.6161 70.9455 76.1384 70.4679L74.5261 68.8556C74.5411 69.0198 74.4589 69.2661 74.2799 69.5945C74.1007 69.913 73.8743 70.2638 73.6006 70.647C73.3269 71.0201 73.0557 71.3809 72.787 71.7293C72.5183 72.0677 72.3019 72.3438 72.1377 72.5577C71.7396 73.0752 71.4087 73.6002 71.145 74.1326C70.8812 74.6551 70.7593 75.1702 70.7792 75.6778C70.7991 76.1754 71.033 76.6481 71.4808 77.0959C72.0929 77.708 72.782 77.9443 73.5484 77.805C74.3147 77.6557 75.0487 77.2302 75.7503 76.5286Z" fill="white"/>
<path d="M93.8421 65.4572C92.5257 66.2172 91.2127 66.5609 89.9031 66.4881C88.5935 66.4154 87.3678 65.9814 86.2261 65.1861C85.0843 64.3907 84.1088 63.2922 83.2995 61.8905C82.4762 60.4645 82.0117 59.0546 81.9059 57.6612C81.8028 56.2581 82.0458 54.976 82.6351 53.8152C83.2269 52.6446 84.1566 51.6934 85.4243 50.9616C86.4116 50.3915 87.4068 50.0606 88.4103 49.9689C89.4137 49.8771 90.3582 50.0143 91.2441 50.3804C92.1299 50.7467 92.8871 51.3333 93.5157 52.1406L91.3583 53.3861C90.8243 52.8412 90.1314 52.4856 89.2796 52.3191C88.4305 52.1431 87.5305 52.3295 86.5797 52.8784C85.7387 53.364 85.1279 54.0092 84.7474 54.8138C84.3695 55.609 84.2326 56.5047 84.3365 57.5011C84.4431 58.4878 84.8024 59.5114 85.4147 60.5718C86.041 61.6566 86.7571 62.5027 87.5628 63.1101C88.3746 63.714 89.2227 64.0572 90.1074 64.1397C90.998 64.2186 91.87 64.0118 92.7232 63.5192C93.2839 63.1955 93.7365 62.8042 94.0809 62.3453C94.4254 61.8864 94.6505 61.3826 94.7564 60.8339C94.8622 60.2853 94.8343 59.7164 94.6728 59.127L96.8303 57.8815C97.1869 58.7806 97.3162 59.7013 97.2183 60.6436C97.123 61.5763 96.7948 62.4646 96.2338 63.3084C95.6753 64.1428 94.8781 64.8591 93.8421 65.4572Z" fill="white"/>
<path d="M122.951 56.6784V35.0602H130.509C132.015 35.0602 133.257 35.3206 134.236 35.8413C135.214 36.355 135.942 37.0482 136.421 37.9208C136.899 38.7864 137.138 39.7469 137.138 40.8025C137.138 41.7314 136.972 42.4985 136.643 43.1037C136.319 43.7089 135.89 44.1874 135.354 44.5392C134.826 44.8911 134.253 45.1515 133.634 45.3203V45.5315C134.295 45.5737 134.96 45.8059 135.629 46.2281C136.298 46.6504 136.857 47.2556 137.307 48.0437C137.757 48.832 137.983 49.796 137.983 50.936C137.983 52.0198 137.736 52.9944 137.244 53.8599C136.752 54.7255 135.974 55.4117 134.911 55.9184C133.848 56.425 132.466 56.6784 130.763 56.6784H122.951ZM125.569 54.356L130.763 54.3561C132.473 54.3561 133.687 54.0253 134.404 53.3638C135.13 52.6953 135.491 51.8861 135.491 50.936C135.491 50.2042 135.305 49.5286 134.932 48.9093C134.559 48.283 134.028 47.7834 133.338 47.4104C132.649 47.0304 131.832 46.8404 130.889 46.8404H125.569V54.356ZM125.569 44.5604H130.425C131.213 44.5604 131.924 44.4055 132.557 44.0959C133.198 43.7863 133.704 43.35 134.077 42.787C134.457 42.224 134.647 41.5625 134.647 40.8025C134.647 39.8525 134.316 39.0467 133.655 38.3852C132.993 37.7167 131.945 37.3824 130.509 37.3824H125.569V44.5604Z" fill="white"/>
<path d="M146.227 53.611L157.018 43.5197L159.791 44.2628L155.594 59.924L153.188 59.2793L156.434 47.1663L145.684 57.2685L142.87 56.5144L147.066 40.8533L149.473 41.498L146.227 53.611Z" fill="white"/>
<path d="M157.618 65.4994L161.101 59.466L162.271 60.1415C162.73 60.0083 163.163 59.8277 163.571 59.6001C163.979 59.3723 164.396 59.0647 164.823 58.6773C165.26 58.2873 165.731 57.7797 166.239 57.1544C166.749 56.5229 167.331 55.7413 167.983 54.8093L171.667 49.5258L180.589 54.6769L173.643 66.7072L175.8 67.9528L172.318 73.9862L170.16 72.7406L172.482 68.7183L162.097 62.7227L159.776 66.745L157.618 65.4994ZM164.721 61.556L171.486 65.4616L177.271 55.4425L172.517 52.698L170.103 56.0337C169.103 57.4146 168.174 58.5883 167.315 59.5552C166.456 60.5219 165.592 61.1889 164.721 61.556Z" fill="white"/>
<path d="M182.61 77.9943C181.506 76.8896 180.797 75.6929 180.483 74.4041C180.18 73.1153 180.252 71.8141 180.7 70.5004C181.158 69.1868 181.973 67.9427 183.148 66.7683C184.322 65.594 185.571 64.773 186.895 64.3052C188.228 63.8375 189.532 63.738 190.805 64.0067C192.09 64.2754 193.249 64.9273 194.284 65.9623C194.882 66.5594 195.371 67.2486 195.755 68.0298C196.138 68.8111 196.344 69.6645 196.374 70.59C196.409 71.5106 196.203 72.4784 195.755 73.4935C195.307 74.5086 194.548 75.5511 193.478 76.6209L192.732 77.3673L183.894 68.5299L185.417 67.0072L192.463 74.0533C193.11 73.4064 193.558 72.6998 193.807 71.9335C194.06 71.1722 194.098 70.4084 193.919 69.6421C193.744 68.8807 193.339 68.1816 192.702 67.5447C192 66.8431 191.219 66.4101 190.358 66.2459C189.507 66.0817 188.668 66.1389 187.843 66.4176C187.017 66.6962 186.287 67.1515 185.656 67.7835L184.64 68.7986C183.775 69.6645 183.19 70.5477 182.887 71.4484C182.593 72.349 182.558 73.2248 182.782 74.0756C183.011 74.9216 183.481 75.7003 184.193 76.4119C184.655 76.8747 185.138 77.228 185.641 77.4718C186.154 77.7157 186.679 77.8425 187.216 77.8525C187.758 77.8575 188.303 77.7356 188.851 77.4868L190.074 79.6662C189.318 80.0643 188.51 80.2708 187.649 80.2858C186.793 80.2957 185.932 80.1116 185.067 79.7334C184.206 79.3502 183.387 78.7706 182.61 77.9943Z" fill="white"/>
<path d="M194.063 93.0115C193.331 91.7439 192.991 90.4575 193.042 89.1523C193.096 87.8533 193.511 86.6224 194.286 85.4598C195.065 84.3032 196.18 83.3063 197.63 82.4689C199.093 81.6244 200.523 81.1524 201.92 81.0528C203.32 80.9593 204.596 81.2137 205.748 81.816C206.905 82.4245 207.848 83.3626 208.58 84.6302C209.312 85.8979 209.65 87.1812 209.597 88.4803C209.545 89.7854 209.127 91.018 208.342 92.1781C207.561 93.3442 206.44 94.3495 204.976 95.1939C203.527 96.0313 202.104 96.495 200.71 96.5851C199.319 96.6811 198.045 96.425 196.889 95.8165C195.737 95.2141 194.796 94.2791 194.063 93.0115ZM196.001 91.8926C196.557 92.8555 197.262 93.5052 198.114 93.8419C198.967 94.1785 199.882 94.2639 200.858 94.098C201.835 93.9322 202.793 93.5784 203.731 93.0365C204.67 92.4946 205.458 91.8404 206.096 91.0738C206.734 90.3072 207.124 89.4688 207.264 88.5587C207.406 87.6486 207.198 86.712 206.642 85.7491C206.086 84.7863 205.379 84.1381 204.521 83.8051C203.662 83.472 202.741 83.3901 201.758 83.5595C200.775 83.7288 199.814 84.0844 198.876 84.6262C197.937 85.1681 197.152 85.8206 196.52 86.5837C195.887 87.3468 195.504 88.1816 195.369 89.0883C195.234 89.9949 195.446 90.9296 196.001 91.8926Z" fill="white"/>
<path d="M202.984 129.999C202.984 128.535 203.333 127.251 204.029 126.146C204.726 125.048 205.701 124.189 206.953 123.57C208.205 122.958 209.669 122.652 211.344 122.652C213.033 122.652 214.507 122.958 215.767 123.57C217.027 124.189 218.005 125.048 218.701 126.146C219.398 127.251 219.747 128.535 219.747 129.999C219.747 131.462 219.398 132.743 218.701 133.841C218.005 134.946 217.027 135.804 215.767 136.417C214.507 137.036 213.033 137.345 211.344 137.345C209.669 137.345 208.205 137.036 206.953 136.417C205.701 135.804 204.726 134.946 204.029 133.841C203.333 132.743 202.984 131.462 202.984 129.999ZM205.222 129.999C205.222 131.111 205.506 132.025 206.077 132.743C206.647 133.461 207.396 133.992 208.325 134.337C209.254 134.682 210.26 134.854 211.344 134.854C212.427 134.854 213.438 134.682 214.373 134.337C215.31 133.992 216.066 133.461 216.643 132.743C217.22 132.025 217.508 131.111 217.508 129.999C217.508 128.887 217.22 127.972 216.643 127.254C216.066 126.536 215.31 126.005 214.373 125.66C213.438 125.315 212.427 125.143 211.344 125.143C210.26 125.143 209.254 125.315 208.325 125.66C207.396 126.005 206.647 126.536 206.077 127.254C205.506 127.972 205.222 128.887 205.222 129.999Z" fill="white"/>
<path d="M200.124 175.661L198.113 174.499L202.588 166.747L204.6 167.908L200.124 175.661ZM210.338 171.903L196.297 163.796L197.542 161.639L211.583 169.746L210.338 171.903ZM205.207 180.789L191.166 172.682L192.412 170.525L206.453 178.632L205.207 180.789Z" fill="white"/>
<path d="M182.936 181.62C183.663 180.894 184.459 180.371 185.324 180.053C186.195 179.74 187.066 179.67 187.937 179.844C188.813 180.023 189.623 180.486 190.37 181.232C191.027 181.889 191.43 182.551 191.579 183.218C191.734 183.889 191.711 184.558 191.512 185.225C191.313 185.892 191.01 186.544 190.601 187.181C190.193 187.828 189.758 188.452 189.295 189.055C188.688 189.84 188.191 190.473 187.802 190.95C187.415 191.438 187.178 191.839 187.094 192.152C187.004 192.47 187.101 192.771 187.385 193.056L187.445 193.115C188.181 193.851 188.955 194.222 189.766 194.227C190.572 194.237 191.38 193.836 192.192 193.025C193.033 192.185 193.507 191.341 193.617 190.495C193.726 189.649 193.669 188.92 193.445 188.309L195.714 187.234C196.112 188.228 196.257 189.169 196.147 190.054C196.038 190.95 195.765 191.772 195.327 192.518C194.889 193.275 194.381 193.94 193.804 194.518C193.435 194.887 192.967 195.264 192.401 195.653C191.833 196.051 191.191 196.339 190.475 196.519C189.753 196.703 188.972 196.673 188.131 196.429C187.29 196.185 186.414 195.608 185.504 194.697L177.95 187.143L179.712 185.383L181.264 186.934L181.354 186.845C181.224 186.477 181.157 186.012 181.152 185.449C181.147 184.887 181.277 184.275 181.54 183.613C181.804 182.951 182.269 182.287 182.936 181.62ZM184.25 183.471C183.554 184.168 183.103 184.892 182.899 185.643C182.69 186.4 182.68 187.117 182.869 187.793C183.053 188.475 183.384 189.055 183.862 189.532L185.474 191.144C185.459 190.98 185.541 190.734 185.72 190.405C185.899 190.087 186.126 189.736 186.399 189.353C186.673 188.979 186.944 188.619 187.213 188.271C187.481 187.932 187.698 187.657 187.863 187.443C188.26 186.924 188.591 186.4 188.855 185.867C189.119 185.345 189.241 184.83 189.221 184.322C189.201 183.825 188.967 183.352 188.52 182.905C187.907 182.292 187.218 182.055 186.452 182.195C185.685 182.345 184.952 182.77 184.25 183.471Z" fill="white"/>
<path d="M166.157 194.543C167.474 193.783 168.787 193.439 170.097 193.511C171.407 193.585 172.633 194.019 173.774 194.814C174.915 195.609 175.891 196.708 176.701 198.11C177.524 199.536 177.988 200.946 178.094 202.339C178.197 203.742 177.954 205.024 177.365 206.185C176.773 207.355 175.843 208.307 174.576 209.039C173.589 209.608 172.593 209.939 171.589 210.032C170.587 210.123 169.641 209.986 168.755 209.619C167.87 209.254 167.113 208.667 166.484 207.86L168.642 206.614C169.176 207.159 169.868 207.515 170.72 207.681C171.569 207.857 172.469 207.67 173.42 207.121C174.262 206.636 174.872 205.991 175.252 205.186C175.631 204.391 175.768 203.495 175.664 202.499C175.557 201.512 175.198 200.489 174.586 199.429C173.959 198.344 173.243 197.498 172.437 196.89C171.626 196.286 170.777 195.943 169.893 195.861C169.002 195.781 168.13 195.988 167.277 196.481C166.716 196.805 166.264 197.196 165.919 197.655C165.575 198.114 165.349 198.617 165.244 199.166C165.138 199.715 165.166 200.284 165.327 200.873L163.17 202.119C162.813 201.219 162.684 200.299 162.782 199.356C162.877 198.424 163.205 197.535 163.767 196.692C164.324 195.858 165.122 195.141 166.157 194.543Z" fill="white"/>
<g clip-path="url(#clip0_32_2)">
<g clip-path="url(#clip1_32_2)">
<path d="M141.603 127.44C143.466 128.664 143.466 131.336 141.603 132.56L121.936 145.468C119.833 146.849 117 145.38 117 142.909V117.091C117 114.62 119.833 113.151 121.936 114.532L141.603 127.44Z" fill="white"/>
</g>
</g>
<rect x="1" y="1" width="258" height="258" rx="129" stroke="black" stroke-width="2"/>
<defs>
<clipPath id="clip0_32_2">
<rect width="26" height="32" fill="white" transform="translate(117 114)"/>
</clipPath>
<clipPath id="clip1_32_2">
<rect width="26" height="32" fill="white" transform="translate(117 114)"/>
</clipPath>
</defs>
</svg>
